<svg xmlns="http://www.w3.org/2000/svg" width="44" height="44" viewBox="0 0 54 54" fill="none">
<path d="M13.856 31.9108C11.7158 31.9108 10.0326 30.2275 10.0326 28.0392C10.0326 25.8509 11.7158 24.1676 13.856 24.1676C15.9962 24.1676 17.7277 25.8509 17.7277 28.0392C17.7277 30.2275 15.9962 31.9108 13.856 31.9108ZM17.7277 21.9793V24.0714H17.2707C16.429 22.5564 14.866 21.6907 13.0624 21.6907C10.1047 21.6907 7.36328 24.4561 7.36328 28.0392C7.36328 31.6223 10.0326 34.3636 13.0624 34.3636C14.866 34.3636 16.429 33.4979 17.2707 31.983H17.7277V34.051H20.3728V21.9793H17.7277Z" fill="#FF5000"/>
<path d="M31.0262 31.6703H26.7458V28.6645H31.0262C32.2286 28.6645 32.8057 29.2896 32.8057 30.1794C32.8057 31.0692 32.2526 31.6703 31.0262 31.6703ZM31.3388 26.3078H26.7458V24.36H34.513V21.9793H24.1006V34.051H31.3388C33.7917 34.051 35.499 32.4158 35.499 30.1794C35.499 27.943 33.7676 26.3078 31.3388 26.3078Z" fill="#FF5000"/>
<path d="M46.6363 22.0112C46.6363 24.3278 44.7583 26.2058 42.4417 26.2058C40.1251 26.2058 38.2471 24.3278 38.2471 22.0112C38.2471 19.6945 40.1251 17.8166 42.4417 17.8166C44.7583 17.8166 46.6363 19.6945 46.6363 22.0112Z" fill="#00F500"/>
</svg>